<?xml version="1.0" encoding="utf-8"?>
<!-- Generator: Adobe Illustrator 28.0.0, SVG Export Plug-In . SVG Version: 6.00 Build 0)  -->
<svg version="1.1" id="レイヤー_1" xmlns="http://www.w3.org/2000/svg" xmlns:xlink="http://www.w3.org/1999/xlink" x="0px"
	 y="0px" viewBox="0 0 172 21" style="enable-background:new 0 0 172 21;" xml:space="preserve">
<style type="text/css">
	.st0{display:none;fill:#F649FF;}
	.st1{fill:#F649FF;}
	.st2{font-family:'Arial-Black';}
	.st3{font-size:21px;}
</style>
<path class="st0" d="M13.9,15.7H9.7L2.9,3.8H2.8C2.9,5.9,3,7.4,3,8.3v7.4H0V0h4.2L11,11.8h0.1c-0.1-2-0.2-3.5-0.2-4.3V0h3V15.7z"/>
<path class="st0" d="M22.6,5.8c-0.7,0-1.2,0.2-1.6,0.7c-0.4,0.4-0.6,1.1-0.7,1.9h4.6c0-0.8-0.2-1.4-0.6-1.9
	C23.9,6,23.3,5.8,22.6,5.8z M23.1,15.9c-1.9,0-3.4-0.5-4.5-1.6s-1.6-2.6-1.6-4.5c0-2,0.5-3.6,1.5-4.7c1-1.1,2.4-1.7,4.2-1.7
	c1.7,0,3,0.5,4,1.5c0.9,1,1.4,2.3,1.4,4v1.6h-7.7c0,0.9,0.3,1.7,0.8,2.2c0.5,0.5,1.2,0.8,2.2,0.8c0.7,0,1.4-0.1,2.1-0.2
	c0.6-0.2,1.3-0.4,2-0.7v2.5c-0.6,0.3-1.2,0.5-1.8,0.6C24.8,15.9,24,15.9,23.1,15.9z"/>
<path class="st0" d="M35.5,15.9c-3.7,0-5.6-2.1-5.6-6.2c0-2,0.5-3.6,1.5-4.7c1-1.1,2.5-1.6,4.4-1.6c1.4,0,2.6,0.3,3.7,0.8l-1,2.5
	c-0.5-0.2-1-0.4-1.4-0.5c-0.4-0.1-0.9-0.2-1.3-0.2c-1.7,0-2.6,1.2-2.6,3.6c0,2.4,0.9,3.5,2.6,3.5c0.6,0,1.2-0.1,1.8-0.2
	c0.5-0.2,1.1-0.4,1.6-0.8V15c-0.5,0.3-1.1,0.6-1.6,0.7C37,15.9,36.3,15.9,35.5,15.9z"/>
<path class="st0" d="M44.6,9.7c0,1.2,0.2,2.1,0.6,2.7c0.4,0.6,1,0.9,1.9,0.9c0.9,0,1.5-0.3,1.9-0.9c0.4-0.6,0.6-1.5,0.6-2.7
	c0-1.2-0.2-2.1-0.6-2.7c-0.4-0.6-1-0.9-1.9-0.9c-0.9,0-1.5,0.3-1.9,0.9C44.8,7.6,44.6,8.5,44.6,9.7z M52.9,9.7c0,2-0.5,3.5-1.5,4.6
	c-1,1.1-2.5,1.7-4.3,1.7c-1.2,0-2.2-0.3-3.1-0.8c-0.9-0.5-1.6-1.2-2-2.2c-0.5-0.9-0.7-2-0.7-3.3c0-2,0.5-3.5,1.5-4.6
	c1-1.1,2.5-1.6,4.3-1.6c1.2,0,2.2,0.3,3.1,0.8c0.9,0.5,1.6,1.2,2,2.2C52.6,7.3,52.9,8.4,52.9,9.7z"/>
<path class="st0" d="M62.2,15.9c-1.4,0-2.5-0.5-3.3-1.5h-0.2c0.1,1,0.2,1.6,0.2,1.7V21h-3.3V3.7h2.7l0.5,1.6h0.2
	c0.8-1.2,1.9-1.8,3.4-1.8c1.4,0,2.5,0.5,3.3,1.6c0.8,1.1,1.2,2.6,1.2,4.6c0,1.3-0.2,2.4-0.6,3.3c-0.4,0.9-0.9,1.7-1.6,2.2
	C63.9,15.7,63.1,15.9,62.2,15.9z M61.2,6.1c-0.8,0-1.4,0.3-1.8,0.8c-0.4,0.5-0.6,1.3-0.6,2.5v0.4c0,1.3,0.2,2.2,0.6,2.8
	c0.4,0.6,1,0.8,1.8,0.8c1.5,0,2.2-1.2,2.2-3.6c0-1.2-0.2-2.1-0.5-2.7C62.5,6.4,62,6.1,61.2,6.1z"/>
<path class="st0" d="M72.1,9.7c0,1.2,0.2,2.1,0.6,2.7c0.4,0.6,1,0.9,1.9,0.9c0.9,0,1.5-0.3,1.9-0.9c0.4-0.6,0.6-1.5,0.6-2.7
	c0-1.2-0.2-2.1-0.6-2.7c-0.4-0.6-1-0.9-1.9-0.9c-0.9,0-1.5,0.3-1.9,0.9C72.3,7.6,72.1,8.5,72.1,9.7z M80.4,9.7c0,2-0.5,3.5-1.5,4.6
	c-1,1.1-2.5,1.7-4.3,1.7c-1.2,0-2.2-0.3-3.1-0.8c-0.9-0.5-1.6-1.2-2-2.2c-0.5-0.9-0.7-2-0.7-3.3c0-2,0.5-3.5,1.5-4.6
	c1-1.1,2.5-1.6,4.3-1.6c1.2,0,2.2,0.3,3.1,0.8c0.9,0.5,1.6,1.2,2,2.2C80.2,7.3,80.4,8.4,80.4,9.7z"/>
<path class="st0" d="M94.2,15.7h-3.3v-7c0-0.9-0.2-1.5-0.5-1.9c-0.3-0.4-0.8-0.7-1.5-0.7c-0.9,0-1.6,0.3-2,0.9
	c-0.4,0.6-0.6,1.6-0.6,3v5.7h-3.3v-12h2.5l0.4,1.5h0.2c0.4-0.6,0.9-1,1.5-1.3c0.6-0.3,1.4-0.5,2.2-0.5c1.4,0,2.5,0.4,3.2,1.1
	c0.7,0.8,1.1,1.8,1.1,3.3V15.7z"/>
<path class="st0" d="M113.7,3.7v1.7l-1.9,0.5c0.3,0.5,0.5,1.1,0.5,1.8c0,1.3-0.5,2.3-1.4,3c-0.9,0.7-2.1,1.1-3.7,1.1l-0.6,0
	l-0.5-0.1c-0.3,0.3-0.5,0.5-0.5,0.9c0,0.5,0.6,0.7,1.8,0.7h2c1.3,0,2.3,0.3,3,0.8c0.7,0.6,1,1.4,1,2.5c0,1.4-0.6,2.5-1.8,3.3
	c-1.2,0.8-2.8,1.2-5,1.2c-1.7,0-3-0.3-3.8-0.9c-0.9-0.6-1.3-1.4-1.3-2.5c0-0.7,0.2-1.3,0.7-1.8c0.5-0.5,1.1-0.8,2-1
	c-0.3-0.1-0.6-0.4-0.9-0.7c-0.3-0.3-0.4-0.7-0.4-1c0-0.5,0.1-0.8,0.4-1.1c0.3-0.3,0.6-0.6,1.1-0.9c-0.6-0.3-1.1-0.7-1.5-1.3
	c-0.4-0.6-0.5-1.3-0.5-2.1c0-1.3,0.4-2.3,1.3-3c0.9-0.7,2.1-1.1,3.7-1.1c0.3,0,0.7,0,1.2,0.1c0.5,0.1,0.8,0.1,0.9,0.1H113.7z
	 M104.5,17.4c0,0.5,0.2,0.8,0.6,1.1c0.4,0.3,1,0.4,1.8,0.4c1.2,0,2.1-0.2,2.8-0.5c0.7-0.3,1-0.8,1-1.3c0-0.5-0.2-0.8-0.6-0.9
	c-0.4-0.2-1-0.3-1.8-0.3h-1.7c-0.6,0-1.1,0.1-1.5,0.4C104.7,16.6,104.5,16.9,104.5,17.4z M105.7,7.6c0,0.7,0.1,1.2,0.4,1.5
	c0.3,0.4,0.8,0.6,1.4,0.6c0.6,0,1.1-0.2,1.4-0.6c0.3-0.4,0.4-0.9,0.4-1.5c0-1.4-0.6-2.2-1.8-2.2C106.3,5.5,105.7,6.2,105.7,7.6z"/>
<path class="st0" d="M123.3,15.7l-0.6-1.6h-0.1c-0.6,0.7-1.1,1.2-1.7,1.5c-0.6,0.3-1.3,0.4-2.3,0.4c-1.2,0-2.1-0.3-2.7-1
	c-0.7-0.7-1-1.6-1-2.8c0-1.3,0.4-2.2,1.3-2.8c0.9-0.6,2.2-0.9,4-1l2.1-0.1V7.7c0-1.2-0.6-1.8-1.9-1.8c-1,0-2.1,0.3-3.4,0.9L116,4.5
	c1.4-0.7,2.9-1.1,4.6-1.1c1.6,0,2.8,0.4,3.7,1.1s1.3,1.8,1.3,3.2v8H123.3z M122.4,10.1l-1.3,0c-1,0-1.7,0.2-2.1,0.5
	c-0.5,0.3-0.7,0.8-0.7,1.4c0,0.9,0.5,1.4,1.6,1.4c0.8,0,1.4-0.2,1.8-0.7c0.5-0.4,0.7-1,0.7-1.7V10.1z"/>
<path class="st0" d="M139.8,15.7h-3.3v-7c0-0.9-0.1-1.5-0.4-1.9c-0.3-0.4-0.7-0.7-1.4-0.7c-0.8,0-1.4,0.3-1.8,0.9
	c-0.4,0.6-0.6,1.6-0.6,3v5.7H129v-12h2.5l0.4,1.5h0.2c0.3-0.6,0.8-1,1.4-1.3c0.6-0.3,1.3-0.5,2.1-0.5c1.8,0,3,0.6,3.7,1.8h0.3
	c0.3-0.6,0.8-1,1.4-1.3c0.6-0.3,1.3-0.5,2.1-0.5c1.4,0,2.4,0.4,3.1,1.1c0.7,0.7,1.1,1.8,1.1,3.4v7.8H144v-7c0-0.9-0.1-1.5-0.4-1.9
	c-0.3-0.4-0.7-0.7-1.4-0.7c-0.8,0-1.4,0.3-1.8,0.9c-0.4,0.6-0.6,1.5-0.6,2.7V15.7z"/>
<path class="st0" d="M155.6,5.8c-0.7,0-1.2,0.2-1.6,0.7c-0.4,0.4-0.6,1.1-0.7,1.9h4.6c0-0.8-0.2-1.4-0.6-1.9
	C156.8,6,156.3,5.8,155.6,5.8z M156.1,15.9c-1.9,0-3.4-0.5-4.5-1.6c-1.1-1.1-1.6-2.6-1.6-4.5c0-2,0.5-3.6,1.5-4.7
	c1-1.1,2.4-1.7,4.2-1.7c1.7,0,3,0.5,4,1.5c0.9,1,1.4,2.3,1.4,4v1.6h-7.7c0,0.9,0.3,1.7,0.8,2.2c0.5,0.5,1.2,0.8,2.2,0.8
	c0.7,0,1.4-0.1,2.1-0.2c0.6-0.2,1.3-0.4,2-0.7v2.5c-0.6,0.3-1.2,0.5-1.8,0.6C157.8,15.9,157,15.9,156.1,15.9z"/>
<path class="st0" d="M172,12.1c0,1.2-0.4,2.2-1.3,2.8c-0.9,0.6-2.1,1-3.8,1c-0.9,0-1.6-0.1-2.2-0.2c-0.6-0.1-1.2-0.3-1.7-0.5v-2.7
	c0.6,0.3,1.3,0.5,2.1,0.7c0.8,0.2,1.4,0.3,2,0.3c1.2,0,1.8-0.3,1.8-1c0-0.3-0.1-0.5-0.2-0.6c-0.2-0.2-0.4-0.3-0.8-0.5
	c-0.4-0.2-0.9-0.4-1.5-0.7c-0.9-0.4-1.6-0.7-2-1.1c-0.4-0.3-0.7-0.7-0.9-1.1c-0.2-0.4-0.3-1-0.3-1.6c0-1.1,0.4-1.9,1.2-2.5
	c0.8-0.6,2-0.9,3.5-0.9c1.4,0,2.9,0.3,4.2,0.9l-1,2.4c-0.6-0.3-1.2-0.5-1.7-0.6c-0.5-0.2-1.1-0.2-1.6-0.2c-1,0-1.4,0.3-1.4,0.8
	c0,0.3,0.2,0.5,0.5,0.8c0.3,0.2,1,0.5,2.1,1c0.9,0.4,1.6,0.7,2.1,1.1c0.4,0.3,0.8,0.7,1,1.1C171.9,11,172,11.5,172,12.1z"/>
<text transform="matrix(1 0 0 1 12.7396 15.9278)" class="st1 st2 st3">Space World</text>
</svg>
